<svg width="167" height="36" viewBox="0 0 167 36" fill="none" xmlns="http://www.w3.org/2000/svg">
<g filter="url(#filter0_b_979_293)">
<rect width="167" height="36" rx="8" fill="white" fill-opacity="0.2"/>
<path d="M15.0834 20.0833C15.6359 20.0833 16.1658 19.8638 16.5565 19.4731C16.9472 19.0824 17.1667 18.5525 17.1667 18C17.1667 16.85 16.75 16.3333 16.3334 15.5C15.44 13.7142 16.1467 12.1217 18 10.5C18.4167 12.5833 19.6667 14.5833 21.3334 15.9167C23 17.25 23.8334 18.8333 23.8334 20.5C23.8334 21.266 23.6825 22.0246 23.3893 22.7323C23.0962 23.4401 22.6665 24.0831 22.1248 24.6248C21.5831 25.1665 20.9401 25.5961 20.2323 25.8893C19.5246 26.1824 18.7661 26.3333 18 26.3333C17.234 26.3333 16.4754 26.1824 15.7677 25.8893C15.06 25.5961 14.4169 25.1665 13.8752 24.6248C13.3336 24.0831 12.9039 23.4401 12.6107 22.7323C12.3176 22.0246 12.1667 21.266 12.1667 20.5C12.1667 19.5392 12.5275 18.5883 13 18C13 18.5525 13.2195 19.0824 13.6102 19.4731C14.0009 19.8638 14.5308 20.0833 15.0834 20.0833Z" stroke="#EEEEEE" stroke-width="2" stroke-linecap="round" stroke-linejoin="round"/>
<path d="M33.4347 25V10.4545H42.8949V12.6634H36.0696V16.6122H42.4048V18.821H36.0696V22.7912H42.9517V25H33.4347ZM45.4695 25V14.0909H47.9268V15.9446H48.0547C48.282 15.3196 48.6584 14.8319 49.1839 14.4815C49.7095 14.1264 50.3369 13.9489 51.0661 13.9489C51.8047 13.9489 52.4273 14.1288 52.9339 14.4886C53.4453 14.8437 53.8052 15.3291 54.0135 15.9446H54.1271C54.3686 15.3385 54.7758 14.8556 55.3487 14.4957C55.9264 14.1312 56.6106 13.9489 57.4013 13.9489C58.4051 13.9489 59.2242 14.2661 59.8587 14.9006C60.4931 15.535 60.8104 16.4607 60.8104 17.6776V25H58.2322V18.0753C58.2322 17.3982 58.0523 16.9034 57.6925 16.5909C57.3326 16.2737 56.8923 16.1151 56.3714 16.1151C55.7512 16.1151 55.2659 16.3092 54.9155 16.6974C54.5698 17.081 54.397 17.5805 54.397 18.196V25H51.8757V17.9688C51.8757 17.4053 51.7053 16.9555 51.3643 16.6193C51.0282 16.2831 50.5878 16.1151 50.0433 16.1151C49.674 16.1151 49.3378 16.2098 49.0348 16.3991C48.7318 16.5838 48.4903 16.8466 48.3104 17.1875C48.1304 17.5237 48.0405 17.9167 48.0405 18.3665V25H45.4695ZM72.4279 25.1918C71.5709 25.1918 70.8039 24.9716 70.1268 24.5312C69.4497 24.0909 68.9147 23.4517 68.5217 22.6136C68.1287 21.7756 67.9322 20.7576 67.9322 19.5597C67.9322 18.3475 68.131 17.3248 68.5288 16.4915C68.9312 15.6534 69.4734 15.0213 70.1552 14.5952C70.837 14.1643 71.5969 13.9489 72.435 13.9489C73.0742 13.9489 73.5998 14.0578 74.0117 14.2756C74.4237 14.4886 74.7504 14.7467 74.9918 15.0497C75.2333 15.348 75.4203 15.6297 75.5529 15.8949H75.6594V10.4545H78.2376V25H75.7092V23.2812H75.5529C75.4203 23.5464 75.2286 23.8281 74.9776 24.1264C74.7267 24.42 74.3952 24.6709 73.9833 24.8793C73.5714 25.0876 73.0529 25.1918 72.4279 25.1918ZM73.1452 23.0824C73.6897 23.0824 74.1538 22.9356 74.5373 22.642C74.9208 22.3437 75.212 21.9295 75.4109 21.3991C75.6097 20.8688 75.7092 20.2509 75.7092 19.5455C75.7092 18.84 75.6097 18.2268 75.4109 17.706C75.2167 17.1851 74.9279 16.7803 74.5444 16.4915C74.1656 16.2027 73.6992 16.0582 73.1452 16.0582C72.5723 16.0582 72.0941 16.2074 71.7106 16.5057C71.3271 16.804 71.0382 17.2159 70.8441 17.7415C70.65 18.267 70.5529 18.8684 70.5529 19.5455C70.5529 20.2273 70.65 20.8357 70.8441 21.3707C71.043 21.901 71.3342 22.3201 71.7177 22.6278C72.1059 22.9309 72.5818 23.0824 73.1452 23.0824ZM85.8068 25.2131C84.7131 25.2131 83.7685 24.9858 82.973 24.5312C82.1823 24.072 81.5739 23.4233 81.1477 22.5852C80.7216 21.7424 80.5085 20.7505 80.5085 19.6094C80.5085 18.4872 80.7216 17.5024 81.1477 16.6548C81.5786 15.8026 82.1799 15.1397 82.9517 14.6662C83.7235 14.188 84.6302 13.9489 85.6719 13.9489C86.3442 13.9489 86.9787 14.0578 87.5753 14.2756C88.1766 14.4886 88.7069 14.8201 89.1662 15.2699C89.6302 15.7197 89.9948 16.2926 90.2599 16.9886C90.5251 17.6799 90.6577 18.5038 90.6577 19.4602V20.2486H81.7159V18.5156H88.1932C88.1884 18.0232 88.0819 17.5852 87.8736 17.2017C87.6652 16.8134 87.3741 16.508 87 16.2855C86.6307 16.063 86.1998 15.9517 85.7074 15.9517C85.1818 15.9517 84.7202 16.0795 84.3224 16.3352C83.9247 16.5862 83.6146 16.9176 83.392 17.3295C83.1742 17.7367 83.063 18.1842 83.0582 18.6719V20.1847C83.0582 20.8191 83.1742 21.3636 83.4062 21.8182C83.6383 22.268 83.9626 22.6136 84.3793 22.8551C84.7959 23.0919 85.2836 23.2102 85.8423 23.2102C86.2164 23.2102 86.5549 23.1581 86.858 23.054C87.161 22.9451 87.4238 22.7865 87.6463 22.5781C87.8688 22.3698 88.0369 22.1117 88.1506 21.804L90.5511 22.0739C90.3996 22.7083 90.1108 23.2623 89.6847 23.7358C89.2633 24.2045 88.7235 24.5691 88.0653 24.8295C87.4072 25.0852 86.6544 25.2131 85.8068 25.2131ZM101.455 16.9744L99.1112 17.2301C99.0449 16.9934 98.9289 16.7708 98.7631 16.5625C98.6022 16.3542 98.3844 16.1861 98.1097 16.0582C97.8351 15.9304 97.4989 15.8665 97.1012 15.8665C96.5662 15.8665 96.1164 15.9825 95.7518 16.2145C95.3919 16.4465 95.2144 16.7472 95.2191 17.1165C95.2144 17.4337 95.3304 17.6918 95.5671 17.8906C95.8086 18.0895 96.2063 18.2528 96.7603 18.3807L98.6211 18.7784C99.6533 19.0009 100.42 19.3537 100.922 19.8366C101.429 20.3196 101.685 20.9517 101.689 21.733C101.685 22.4195 101.483 23.0256 101.086 23.5511C100.693 24.072 100.146 24.4792 99.445 24.7727C98.7442 25.0663 97.9393 25.2131 97.0302 25.2131C95.695 25.2131 94.6201 24.9337 93.8058 24.375C92.9914 23.8116 92.506 23.0279 92.3498 22.0241L94.8569 21.7827C94.9705 22.2751 95.212 22.6468 95.5813 22.8977C95.9506 23.1487 96.4312 23.2741 97.0231 23.2741C97.6339 23.2741 98.1239 23.1487 98.4933 22.8977C98.8673 22.6468 99.0543 22.3366 99.0543 21.9673C99.0543 21.6548 98.9336 21.3968 98.6921 21.1932C98.4554 20.9896 98.0861 20.8333 97.5842 20.7244L95.7234 20.3338C94.677 20.116 93.9028 19.7491 93.4009 19.233C92.899 18.7121 92.6504 18.054 92.6552 17.2585C92.6504 16.5862 92.8327 16.0038 93.2021 15.5114C93.5761 15.0142 94.0946 14.6307 94.7575 14.3608C95.4251 14.0862 96.1945 13.9489 97.0657 13.9489C98.3441 13.9489 99.3503 14.2211 100.084 14.7656C100.823 15.3101 101.28 16.0464 101.455 16.9744ZM109.257 14.0909V16.0795H102.985V14.0909H109.257ZM104.534 11.4773H107.105V21.7188C107.105 22.0644 107.157 22.3295 107.261 22.5142C107.37 22.6941 107.512 22.8172 107.687 22.8835C107.862 22.9498 108.056 22.983 108.27 22.983C108.431 22.983 108.577 22.9711 108.71 22.9474C108.847 22.9238 108.951 22.9025 109.022 22.8835L109.456 24.8935C109.318 24.9408 109.122 24.9929 108.866 25.0497C108.615 25.1065 108.307 25.1397 107.943 25.1491C107.299 25.1681 106.719 25.071 106.203 24.858C105.687 24.6402 105.277 24.304 104.974 23.8494C104.676 23.3949 104.529 22.8267 104.534 22.1449V11.4773ZM114.546 25.2202C113.855 25.2202 113.232 25.0971 112.678 24.8509C112.129 24.5999 111.693 24.2306 111.371 23.7429C111.054 23.2552 110.896 22.6539 110.896 21.9389C110.896 21.3234 111.009 20.8144 111.237 20.4119C111.464 20.0095 111.774 19.6875 112.167 19.446C112.56 19.2045 113.003 19.0223 113.495 18.8991C113.992 18.7713 114.506 18.679 115.036 18.6222C115.675 18.5559 116.194 18.4967 116.592 18.4446C116.989 18.3878 117.278 18.3026 117.458 18.1889C117.643 18.0705 117.735 17.8883 117.735 17.642V17.5994C117.735 17.0644 117.576 16.6501 117.259 16.3565C116.942 16.063 116.485 15.9162 115.888 15.9162C115.259 15.9162 114.759 16.0535 114.39 16.3281C114.025 16.6027 113.779 16.9271 113.651 17.3011L111.251 16.9602C111.44 16.2973 111.753 15.7434 112.188 15.2983C112.624 14.8485 113.156 14.5123 113.786 14.2898C114.416 14.0625 115.112 13.9489 115.874 13.9489C116.4 13.9489 116.923 14.0104 117.444 14.1335C117.965 14.2566 118.441 14.4602 118.871 14.7443C119.302 15.0237 119.648 15.4048 119.908 15.8878C120.174 16.3707 120.306 16.9744 120.306 17.6989V25H117.835V23.5014H117.749C117.593 23.8045 117.373 24.0885 117.089 24.3537C116.809 24.6141 116.457 24.8248 116.031 24.9858C115.609 25.142 115.114 25.2202 114.546 25.2202ZM115.214 23.331C115.73 23.331 116.177 23.2292 116.556 23.0256C116.935 22.8172 117.226 22.5426 117.43 22.2017C117.638 21.8608 117.742 21.4891 117.742 21.0866V19.8011C117.662 19.8674 117.524 19.929 117.33 19.9858C117.141 20.0426 116.928 20.0923 116.691 20.1349C116.454 20.1776 116.22 20.2154 115.988 20.2486C115.756 20.2817 115.555 20.3101 115.384 20.3338C115.001 20.3859 114.657 20.4711 114.354 20.5895C114.051 20.7079 113.812 20.8736 113.637 21.0866C113.462 21.295 113.374 21.5649 113.374 21.8963C113.374 22.3698 113.547 22.7273 113.893 22.9688C114.238 23.2102 114.679 23.331 115.214 23.331ZM130.171 29.0909V23.2812H130.065C129.932 23.5464 129.74 23.8281 129.489 24.1264C129.238 24.42 128.907 24.6709 128.495 24.8793C128.083 25.0876 127.565 25.1918 126.94 25.1918C126.083 25.1918 125.316 24.9716 124.638 24.5312C123.961 24.0909 123.426 23.4517 123.033 22.6136C122.64 21.7756 122.444 20.7576 122.444 19.5597C122.444 18.3475 122.643 17.3248 123.04 16.4915C123.443 15.6534 123.985 15.0213 124.667 14.5952C125.349 14.1643 126.109 13.9489 126.947 13.9489C127.586 13.9489 128.112 14.0578 128.523 14.2756C128.935 14.4886 129.262 14.7467 129.504 15.0497C129.745 15.348 129.932 15.6297 130.065 15.8949H130.221V14.0909H132.749V29.0909H130.171ZM127.657 23.0824C128.201 23.0824 128.665 22.9356 129.049 22.642C129.433 22.3437 129.724 21.9295 129.923 21.3991C130.121 20.8688 130.221 20.2509 130.221 19.5455C130.221 18.84 130.121 18.2268 129.923 17.706C129.728 17.1851 129.44 16.7803 129.056 16.4915C128.677 16.2027 128.211 16.0582 127.657 16.0582C127.084 16.0582 126.606 16.2074 126.222 16.5057C125.839 16.804 125.55 17.2159 125.356 17.7415C125.162 18.267 125.065 18.8684 125.065 19.5455C125.065 20.2273 125.162 20.8357 125.356 21.3707C125.555 21.901 125.846 22.3201 126.229 22.6278C126.618 22.9309 127.094 23.0824 127.657 23.0824ZM142.344 20.4119V14.0909H144.915V25H142.423V23.0611H142.309C142.063 23.6719 141.658 24.1714 141.094 24.5597C140.536 24.9479 139.847 25.142 139.028 25.142C138.313 25.142 137.681 24.9834 137.131 24.6662C136.587 24.3442 136.161 23.8778 135.853 23.267C135.545 22.6515 135.391 21.9081 135.391 21.0369V14.0909H137.962V20.6392C137.962 21.3305 138.152 21.8797 138.531 22.2869C138.909 22.6941 139.406 22.8977 140.022 22.8977C140.401 22.8977 140.768 22.8054 141.123 22.6207C141.478 22.4361 141.769 22.1615 141.996 21.7969C142.228 21.4276 142.344 20.9659 142.344 20.4119ZM152.389 25.2131C151.295 25.2131 150.35 24.9858 149.555 24.5312C148.764 24.072 148.156 23.4233 147.73 22.5852C147.304 21.7424 147.091 20.7505 147.091 19.6094C147.091 18.4872 147.304 17.5024 147.73 16.6548C148.161 15.8026 148.762 15.1397 149.534 14.6662C150.306 14.188 151.212 13.9489 152.254 13.9489C152.926 13.9489 153.561 14.0578 154.157 14.2756C154.759 14.4886 155.289 14.8201 155.748 15.2699C156.212 15.7197 156.577 16.2926 156.842 16.9886C157.107 17.6799 157.24 18.5038 157.24 19.4602V20.2486H148.298V18.5156H154.775C154.77 18.0232 154.664 17.5852 154.456 17.2017C154.247 16.8134 153.956 16.508 153.582 16.2855C153.213 16.063 152.782 15.9517 152.289 15.9517C151.764 15.9517 151.302 16.0795 150.904 16.3352C150.507 16.5862 150.197 16.9176 149.974 17.3295C149.756 17.7367 149.645 18.1842 149.64 18.6719V20.1847C149.64 20.8191 149.756 21.3636 149.988 21.8182C150.22 22.268 150.545 22.6136 150.961 22.8551C151.378 23.0919 151.866 23.2102 152.424 23.2102C152.798 23.2102 153.137 23.1581 153.44 23.054C153.743 22.9451 154.006 22.7865 154.228 22.5781C154.451 22.3698 154.619 22.1117 154.733 21.804L157.133 22.0739C156.982 22.7083 156.693 23.2623 156.267 23.7358C155.845 24.2045 155.306 24.5691 154.647 24.8295C153.989 25.0852 153.236 25.2131 152.389 25.2131Z" fill="#EEEEEE"/>
</g>
<defs>
<filter id="filter0_b_979_293" x="-12" y="-12" width="191" height="60" filterUnits="userSpaceOnUse" color-interpolation-filters="sRGB">
<feFlood flood-opacity="0" result="BackgroundImageFix"/>
<feGaussianBlur in="BackgroundImageFix" stdDeviation="6"/>
<feComposite in2="SourceAlpha" operator="in" result="effect1_backgroundBlur_979_293"/>
<feBlend mode="normal" in="SourceGraphic" in2="effect1_backgroundBlur_979_293" result="shape"/>
</filter>
</defs>
</svg>
